<!DOCTYPE svg PUBLIC "-//W3C//DTD SVG 1.1//EN" "http://www.w3.org/Graphics/SVG/1.1/DTD/svg11.dtd">
<!-- Uploaded to: SVG Repo, www.svgrepo.com, Transformed by: SVG Repo Mixer Tools -->
<svg version="1.1" id="Layer_1" xmlns="http://www.w3.org/2000/svg" xmlns:xlink="http://www.w3.org/1999/xlink" viewBox="0 0 508 508" xml:space="preserve" width="800px" height="800px" fill="#000000" stroke="#000000" stroke-width="7.112">
<g id="SVGRepo_bgCarrier" stroke-width="0"/>
<g id="SVGRepo_tracerCarrier" stroke-linecap="round" stroke-linejoin="round"/>
<g id="SVGRepo_iconCarrier"> <circle style="fill:#d4b35e;" cx="254" cy="254" r="254"/> <rect x="244.4" y="106.4" style="fill:#F1543F;" width="19.6" height="49.6"/> <rect x="108" y="244.8" style="fill:#E6E9EE;" width="292" height="122"/> <g> <path style="fill:#FFFFFF;" d="M108,385.6L108,385.6c-13.2,0-24-10.8-24-24v-112c0-13.2,10.8-24,24-24l0,0c13.2,0,24,10.8,24,24 V362C132,375.2,121.2,385.6,108,385.6z"/> <path style="fill:#FFFFFF;" d="M400,385.6L400,385.6c-13.2,0-24-10.8-24-24v-112c0-13.2,10.8-24,24-24l0,0c13.2,0,24,10.8,24,24 V362C424,375.2,413.2,385.6,400,385.6z"/> <path style="fill:#FFFFFF;" d="M254,393.6L254,393.6c-20.4,0-36.8-16.4-36.8-36.8V183.6c0-20.4,16.4-36.8,36.8-36.8l0,0 c20.4,0,36.8,16.4,36.8,36.8v173.6C290.8,377.2,274.4,393.6,254,393.6z"/> </g> <path style="fill:#E6E9EE;" d="M297.6,205.2h-86c-5.2,0-9.6-4.4-9.6-9.6l0,0c0-5.2,4.4-9.6,9.6-9.6h86c5.2,0,9.6,4.4,9.6,9.6l0,0 C307.6,200.8,303.2,205.2,297.6,205.2z"/> <path style="fill:#FF7058;" d="M300.4,111.2h-92.8c-4.8,0-8.8-4-8.8-8.8v-2c0-4.8,4-8.8,8.8-8.8H300c4.8,0,8.8,4,8.8,8.8v2 C309.2,107.2,305.2,111.2,300.4,111.2z"/> </g>
</svg>