<?xml version="1.0" encoding="iso-8859-1"?>
<!-- Uploaded to: SVG Repo, www.svgrepo.com, Generator: SVG Repo Mixer Tools -->
<svg version="1.1" id="Layer_1" xmlns="http://www.w3.org/2000/svg" xmlns:xlink="http://www.w3.org/1999/xlink" 
	 viewBox="0 0 448 448" xml:space="preserve">
<rect x="99" y="275" style="fill:#7AC943;" width="154" height="26"/>
<path style="fill:#FFF8EF;" d="M43,51v363.9l52.3-55.2l0.1-0.1c0.3-0.1,0.8-0.2,1.4-0.2c0.4,0,1.4,0.3,2,0.9l53.9,59l54.4-33.7
	l0.4-0.4c0,0,0.1-0.1,0.4-0.1c0.6,0,1.4,0.3,2,0.6l45.5,33.2l38-50c0.6-0.6,1.5-1.5,1.8-1.5h0.8c0.9,0,1.3,0.1,2.1,0.9l62.2,59.7
	l44.7-50.1V51H43z M93,101h158v6H93V101z M93,157h158v6H93V157z M93,213h158v6H93V213z M259,304c0,1.2-1.8,3-3,3H96c-2,0-3-1.8-3-3
	v-32c0-1.2,1-3,3-3h160c1.2,0,3,1.8,3,3V304z M363,267h-40v18h37c1.2,0,3,1.8,3,3v24c0,1.2-1.8,3-3,3h-13v8h-6v-8h-24v-6h40v-18h-37
	c-1.2,0-3-1.8-3-3v-24c0-1.2,1.8-3,3-3h21v-8h6v8h16V267z M371,219h-70v-6h70V219z M371,163h-70v-6h70V163z M371,107h-70v-6h70V107z
	"/>
<path style="fill:#996632;" d="M11,19v58h26V48c0-2,1-3,3-3h368c1.2,0,3,1,3,3v29h26V19H11z"/>
<g>
	<path style="fill:#E0CBB5;" d="M296,354.4L256,408l-31.2-37.6c-4.8-5.6-13.6-6.4-19.2-1.6l-42.4,37.6l40.8-25.6
		c2.4-1.6,6.4-1.6,8.8,0l41.6,30.4l35.2-46.4c1.6-1.6,3.2-3.2,5.6-3.2h0.8c2.4,0,4,0.8,5.6,2.4l52,49.6l-41.6-60
		C308,349.6,300,348.8,296,354.4z"/>
	<path style="fill:#E0CBB5;" d="M90.4,356c1.6-1.6,4-2.4,5.6-2.4c1.6,0,4,0.8,5.6,2.4l34.4,37.6l-31.2-44.8
		c-4.8-7.2-15.2-8.8-22.4-3.2L64,360L48,56v346.4L90.4,356z"/>
</g>
<path style="fill:#42210B;" d="M296,208h80v16h-80V208z M296,152h80v16h-80V152z M296,96h80v16h-80V96z M368,288v24c0,4-4,8-8,8h-8
	v8h-16v-8h-24v-16h40v-8h-32c-4,0-8-4-8-8v-24c0-4,4-8,8-8h16v-8h16v8h16v16h-40v8h32C364,280,368,284,368,288z M88,208h168v16H88
	V208z M88,152h168v16H88V152z M88,96h168v16H88V96z M96,264h160c4,0,8,4,8,8v32c0,4-4,8-8,8H96c-4.8,0-8-4-8-8v-32
	C88,268,91.2,264,96,264z M248,296v-16H104v16H248z M40,40h368c4,0,8,3.2,8,8v24h16V24H16v48h16V48C32,43.2,35.2,40,40,40z
	 M254.4,411.2l35.2-46.4c1.6-1.6,3.2-3.2,5.6-3.2h0.8c2.4,0,4,0.8,5.6,2.4l58.4,56l40-44.8V56H48v346.4l42.4-45.6
	c1.6-1.6,4-2.4,5.6-2.4c2.4,0,4,0.8,5.6,2.4l51.2,56l50.4-31.2c3.2-1.6,6.4-1.6,8.8,0L254.4,411.2z M0,80V16c0-4.8,3.2-8,8-8h432
	c4,0,8,3.2,8,8v64c0,4-4,8-8,8h-24v291.2c0,2.4-0.8,4-2.4,5.6l-48,52.8c-0.8,1.6-3.2,2.4-5.6,2.4l0,0c-2.4,0-4-0.8-5.6-2.4
	l-57.6-55.2l-34.4,44.8c-2.4,3.2-7.2,4-11.2,1.6l-44-32l-51.2,32c-3.2,2.4-7.2,1.6-10.4-1.6L96,373.6L45.6,428
	c-2.4,2.4-5.6,3.2-8.8,2.4c-2.4-1.6-4.8-4.8-4.8-8V88H8C3.2,88,0,84,0,80z"/>
</svg>