<?xml version="1.0" encoding="iso-8859-1"?>
<!-- Uploaded to: SVG Repo, www.svgrepo.com, Generator: SVG Repo Mixer Tools -->
<svg height="800px" width="800px" version="1.1" id="Layer_1" xmlns="http://www.w3.org/2000/svg" xmlns:xlink="http://www.w3.org/1999/xlink" 
	 viewBox="0 0 512 512" xml:space="preserve">
<path style="fill:#E07743;" d="M454.375,501.801H57.625c-26.193,0-47.426-21.234-47.426-47.426V57.625
	c0-26.193,21.234-47.426,47.426-47.426h396.749c26.193,0,47.426,21.234,47.426,47.426v396.749
	C501.801,480.567,480.567,501.801,454.375,501.801z"/>
<path style="fill:#CCCCCC;" d="M439.076,447.745H72.924c-4.788,0-8.669-3.882-8.669-8.669V72.924c0-4.788,3.882-8.669,8.669-8.669
	h366.151c4.788,0,8.669,3.882,8.669,8.669v366.151C447.745,443.863,443.863,447.745,439.076,447.745z"/>
<path style="fill:#E07743;" d="M297.577,132.269c-21.506-12.248-50.544-18.723-83.977-18.723c-11.508,0-20.836,9.328-20.836,20.836
	v247.651c0,11.508,9.328,20.836,20.836,20.836s20.836-9.328,20.836-20.836v-97.722c25.702-1.712,46.301-6.763,62.546-15.326
	c27.236-14.357,41.632-38.466,41.632-69.721C338.614,171.134,324.04,147.342,297.577,132.269z M234.436,242.546v-86.224
	c17.014,1.851,31.71,6.003,42.517,12.157c17.917,10.204,19.989,22.458,19.989,30.785
	C296.943,210.21,296.936,237.622,234.436,242.546z"/>
<path d="M454.375,512H57.625C25.851,512,0,486.149,0,454.375V57.625C0,25.851,25.851,0,57.625,0h396.749
	C486.149,0,512,25.851,512,57.625v396.749C512,486.149,486.149,512,454.375,512z M57.625,20.398
	c-20.527,0-37.227,16.7-37.227,37.227v396.749c0,20.527,16.7,37.227,37.227,37.227h396.749c20.527,0,37.227-16.7,37.227-37.227
	V57.625c0-20.527-16.7-37.227-37.227-37.227H57.625z"/>
<path d="M439.076,457.944H72.924c-10.404,0-18.869-8.464-18.869-18.869V72.924c0-10.404,8.464-18.869,18.869-18.869h366.151
	c10.404,0,18.869,8.464,18.869,18.869v366.151C457.944,449.48,449.48,457.944,439.076,457.944z M74.454,437.546h363.092V74.454
	H74.454V437.546z"/>
<path d="M213.601,413.068c-17.113,0-31.035-13.922-31.035-31.035v-247.65c0-17.112,13.922-31.035,31.035-31.035
	c35.198,0,65.983,6.936,89.025,20.06l0,0c29.784,16.964,46.187,43.905,46.187,75.858c0,35.279-16.279,62.508-47.075,78.743
	c-15.493,8.168-34.243,13.323-57.101,15.677v88.349C244.635,399.146,230.713,413.068,213.601,413.068z M213.601,123.746
	c-5.865,0-10.637,4.771-10.637,10.637v247.65c0,5.865,4.772,10.637,10.637,10.637c5.865,0,10.637-4.771,10.637-10.637v-97.722
	c0-5.37,4.163-9.82,9.521-10.177c24.329-1.621,43.453-6.256,58.467-14.172c24.013-12.658,36.189-33.08,36.189-60.698
	c0-24.308-12.744-44.952-35.885-58.132C272.558,129.758,245.266,123.746,213.601,123.746z M234.436,252.745
	c-2.557,0-5.032-0.961-6.923-2.71c-2.089-1.931-3.276-4.646-3.276-7.489v-86.224c0-2.897,1.232-5.658,3.388-7.592
	c2.156-1.934,5.034-2.86,7.915-2.548c18.498,2.013,34.564,6.659,46.461,13.434c16.917,9.635,25.14,22.604,25.14,39.648
	c0,11.819,0,47.784-71.904,53.449C234.97,252.734,234.702,252.745,234.436,252.745z M244.635,168.118v63.081
	c42.105-5.858,42.107-23.243,42.107-31.934c0-6.662-1.763-14.476-14.838-21.923C264.781,173.284,255.487,170.152,244.635,168.118z"
	/>
<path d="M98.932,424.287c-5.632,0-10.199-4.566-10.199-10.199V259.06c0-5.633,4.567-10.199,10.199-10.199
	s10.199,4.566,10.199,10.199v155.028C109.131,419.721,104.564,424.287,98.932,424.287z"/>
<path d="M98.932,232.542c-5.632,0-10.199-4.566-10.199-10.199v-13.259c0-5.633,4.567-10.199,10.199-10.199
	s10.199,4.566,10.199,10.199v13.259C109.131,227.976,104.564,232.542,98.932,232.542z"/>
</svg>