<svg xmlns="http://www.w3.org/2000/svg" xmlns:xlink="http://www.w3.org/1999/xlink" width="41.965" height="42" viewBox="0 0 41.965 42">
  <defs>
    <clipPath id="clip-path">
      <path id="Path_54" data-name="Path 54" d="M526.011,402.876h3.328v-3.355h-3.328Zm-19.093-9.308v20.222h-3.194v-8.3H500.43v11.625h9.816v-23.55Zm19.093,3.355h3.328v-3.355h-3.328Zm-25.581-9.6v15.551h3.294v-12.2h9.6v26.439H542.4v-3.328h-6.484V396.9h3.242v14.062H542.4v-17.39h-9.813v20.222H529.34v-8.3h-3.329v8.3h-9.333V387.326Zm0-12.207v9.6h35.442v-3.355H503.749v-2.888h35.292v8.852H519.566v23.633h3.354V390.68H542.4V375.119Z" transform="translate(-500.43 -375.119)" fill="none"/>
    </clipPath>
    <linearGradient id="linear-gradient" x2="1" y2="1" gradientUnits="objectBoundingBox">
      <stop offset="0" stop-color="#eace9b"/>
      <stop offset="1" stop-color="#9d824b"/>
    </linearGradient>
  </defs>
  <g id="Group_33" data-name="Group 33" transform="translate(-500.461 -375.119)">
    <g id="Group_15" data-name="Group 15" transform="translate(500.461 375.119)">
      <g id="Group_14" data-name="Group 14" clip-path="url(#clip-path)">
        <rect id="Rectangle_10" data-name="Rectangle 10" width="41.965" height="42" transform="translate(0 0)" fill="url(#linear-gradient)"/>
      </g>
    </g>
  </g>
</svg>
