<svg xmlns="http://www.w3.org/2000/svg" xmlns:xlink="http://www.w3.org/1999/xlink" width="319.122" height="108" viewBox="0 0 319.122 108">
  <defs>
    <clipPath id="clip-path">
      <path id="Path_54" data-name="Path 54" d="M551.4,430.426h6.632v-6.685H551.4Zm-38.044-18.546v40.293h-6.364V435.642H500.43v23.163h19.559V411.881Zm38.044,6.684h6.632v-6.684H551.4ZM500.43,399.441v30.986h6.563v-24.3H526.12v52.68h57.927v-6.631h-12.92V418.512h6.46v28.019h6.46V411.881H564.5v40.293h-6.461V435.642H551.4v16.532H532.8V399.441Zm0-24.322v19.124h70.62v-6.685H507.043V381.8h70.321v17.638h-38.8v47.09h6.684V406.125h38.8V375.119Z" transform="translate(-500.43 -375.119)" fill="none"/>
    </clipPath>
    <linearGradient id="linear-gradient" x2="1" y2="1" gradientUnits="objectBoundingBox">
      <stop offset="0" stop-color="#eace9b"/>
      <stop offset="1" stop-color="#9d824b"/>
    </linearGradient>
  </defs>
  <g id="Group_16" data-name="Group 16" transform="translate(-500.289 -375.119)">
    <path id="Path_41" data-name="Path 41" d="M586.025,383.808V392.7h13.831v8.187H586.025v8.893h16.161v8.187H576.709V375.621h25.477v8.187Z" transform="translate(16.57 0.109)" fill="#fff"/>
    <path id="Path_42" data-name="Path 42" d="M626.807,409.708v8.258h-23.36V375.621h9.316v34.087Z" transform="translate(22.368 0.109)" fill="#fff"/>
    <path id="Path_43" data-name="Path 43" d="M650.229,402.227l-5.435-16.8-5.434,16.8Zm2.47,7.762H636.891l-2.611,7.975h-9.951l15.243-42.343h10.445l15.243,42.343h-9.95Z" transform="translate(26.895 0.109)" fill="#fff"/>
    <path id="Path_44" data-name="Path 44" d="M686.626,383.878H675.969v34.087h-9.244V383.878H656v-8.257h30.629Z" transform="translate(33.762 0.109)" fill="#fff"/>
    <path id="Path_45" data-name="Path 45" d="M714.467,383.878H703.81v34.087h-9.245V383.878H683.839v-8.257h30.629Z" transform="translate(39.799 0.109)" fill="#fff"/>
    <path id="Path_46" data-name="Path 46" d="M732.94,402.227l-5.434-16.8-5.435,16.8Zm2.47,7.762H719.6l-2.613,7.975h-9.95l15.243-42.343h10.445l15.244,42.343h-9.951Z" transform="translate(44.83 0.109)" fill="#fff"/>
    <path id="Path_47" data-name="Path 47" d="M766.708,409.708v8.258H743.348V375.621h9.316v34.087Z" transform="translate(52.703 0.109)" fill="#fff"/>
    <path id="Path_48" data-name="Path 48" d="M605.524,415.089v35.134h-7.671V436.051H583.565v14.171h-7.729V415.089h7.729V429.2h14.288V415.089Z" transform="translate(16.381 8.667)" fill="#fff"/>
    <path id="Path_49" data-name="Path 49" d="M633.687,432.739a10.452,10.452,0,1,0-10.482,10.481,10.291,10.291,0,0,0,10.482-10.481m-28.516,0a18.035,18.035,0,1,1,18.035,18.035,18.041,18.041,0,0,1-18.035-18.035" transform="translate(22.742 8.583)" fill="#fff"/>
    <path id="Path_50" data-name="Path 50" d="M659.132,443.371v6.851H639.75V415.089h7.728v28.282Z" transform="translate(30.24 8.667)" fill="#fff"/>
    <path id="Path_51" data-name="Path 51" d="M670.418,443.371c5.562,0,9.9-4.626,9.9-10.715s-4.333-10.715-9.9-10.715h-3.806v21.431Zm-11.536-28.282h11.594a17.567,17.567,0,0,1,0,35.134H658.882Z" transform="translate(34.388 8.667)" fill="#fff"/>
    <rect id="Rectangle_9" data-name="Rectangle 9" width="7.729" height="35.134" transform="translate(728.672 423.756)" fill="#fff"/>
    <path id="Path_52" data-name="Path 52" d="M733.376,415.089v35.134h-7.963L708.2,426.916v23.306h-7.73V415.089h7.964L725.7,438.335V415.089Z" transform="translate(43.405 8.667)" fill="#fff"/>
    <path id="Path_53" data-name="Path 53" d="M768.568,431.04v1.7a18,18,0,1,1-2.049-8.374l-6.676,3.456a10.476,10.476,0,1,0,.293,9.251h-9.662V431.04Z" transform="translate(50.35 8.583)" fill="#fff"/>
    <g id="Group_15" data-name="Group 15" transform="translate(500.461 375.119)">
      <g id="Group_14" data-name="Group 14" clip-path="url(#clip-path)">
        <rect id="Rectangle_10" data-name="Rectangle 10" width="83.617" height="83.686" transform="translate(0 0)" fill="url(#linear-gradient)"/>
      </g>
    </g>
    <path id="Path_55" data-name="Path 55" d="M599.568,458.167c-.137-1.394-1.56-1.78-3.175-1.78-1.421,0-2.622.7-2.622,1.807,0,.539.332,1.092,1.56,1.3l3.712.635c1.615.276,2.36,1.2,2.36,2.429,0,1.987-1.78,3.188-4.734,3.188-2.828,0-4.471-1.049-4.65-3.243h1.516c.043,1.338,1.326,2.111,3.216,2.111,2.07,0,3.216-.814,3.216-1.9,0-2.76-7.632-.263-7.632-4.429,0-1.919,1.629-3.023,4.348-3.023,2.07,0,4.263.621,4.4,2.912Z" transform="translate(19.89 17.376)" fill="#fff"/>
    <rect id="Rectangle_11" data-name="Rectangle 11" width="1.435" height="9.963" transform="translate(623.548 472.893)" fill="#fff"/>
    <path id="Path_56" data-name="Path 56" d="M613.063,455.47H614.5v9.963h-1.959l-6.1-8.5h-.027v8.5h-1.436V455.47h1.959l6.1,8.5h.028Z" transform="translate(22.699 17.423)" fill="#fff"/>
    <path id="Path_57" data-name="Path 57" d="M625.026,462.707c-.316,2.194-2.387,3.036-4.83,3.036a4.905,4.905,0,0,1-5.2-5.245c0-2.373,1.421-5.244,5.6-5.244,2.359,0,4.167,1.187,4.292,2.885h-1.6c-.248-1.3-1.421-1.752-2.8-1.752-2.277,0-3.974,1.311-3.974,4.112s1.7,4.113,3.974,4.113c1.367,0,2.69-.607,2.94-1.9Z" transform="translate(24.871 17.376)" fill="#fff"/>
    <path id="Path_58" data-name="Path 58" d="M625.227,455.47h7.453V456.6h-6.018v3.146h5.631v1.133h-5.631V464.3h6.183v1.132h-7.619Z" transform="translate(27.09 17.423)" fill="#fff"/>
    <path id="Path_59" data-name="Path 59" d="M641.192,457.274a7.262,7.262,0,0,1-2.817,1.6v-1.283a8.86,8.86,0,0,0,2.941-1.78h1.309v9.549h-1.433Z" transform="translate(29.941 17.496)" fill="#fff"/>
    <path id="Path_60" data-name="Path 60" d="M652.523,458.824c0-.938-.829-2.1-2.705-2.1-1.849,0-2.677,1.158-2.677,2.1s.827,2.1,2.677,2.1c1.876,0,2.705-1.146,2.705-2.1m-5.175,4.03c.1,1.173,1.145,1.683,2.456,1.683,1.767,0,2.843-1.2,3.022-3.961H652.8a3.728,3.728,0,0,1-3.408,1.477c-1.725,0-3.685-1.062-3.685-3.188,0-1.9,1.532-3.271,4.058-3.271,2.456,0,4.416.938,4.416,4.665,0,3.809-1.408,5.409-4.527,5.409-2.056,0-3.616-.827-3.823-2.815Z" transform="translate(31.531 17.45)" fill="#fff"/>
    <path id="Path_61" data-name="Path 61" d="M659.6,461.965v-4.94l-4.637,4.9v.04Zm0,1.133h-5.852v-1.546l5.493-5.74h1.712v6.154h2.125V463.1h-2.125v2.263H659.6Z" transform="translate(33.275 17.496)" fill="#fff"/>
    <path id="Path_62" data-name="Path 62" d="M666.745,459.915c1.408,0,2.526-.69,2.526-1.6,0-1.1-1.077-1.586-2.526-1.586-1.5,0-2.581.482-2.581,1.586,0,.91,1.132,1.6,2.581,1.6m0,4.623c1.725,0,2.788-.759,2.788-1.738s-1.062-1.754-2.788-1.754c-1.808,0-2.871.786-2.871,1.754s1.062,1.738,2.871,1.738m-4.305-1.683a2.548,2.548,0,0,1,2.484-2.4v-.028a2.434,2.434,0,0,1-2.194-2.235c0-1.67,1.448-2.594,4.016-2.594,2.511,0,3.96.924,3.96,2.594a2.451,2.451,0,0,1-2.235,2.235v.028a2.572,2.572,0,0,1,2.581,2.4c0,1.891-1.932,2.815-4.306,2.815s-4.305-.924-4.305-2.815" transform="translate(35.159 17.45)" fill="#fff"/>
    <path id="Path_63" data-name="Path 63" d="M819.385,460.519H715.851m-113.7,0H500.289" transform="translate(0 18.517)" fill="none" stroke="#fff" stroke-width="0.655"/>
  </g>
</svg>
